<?xml version="1.0" encoding="UTF-8"?>
<!DOCTYPE svg PUBLIC "-//W3C//DTD SVG 1.1//EN" "http://www.w3.org/Graphics/SVG/1.1/DTD/svg11.dtd">
<svg version="1.2" width="262.5mm" height="371.25mm" viewBox="0 0 26250 37125" preserveAspectRatio="xMidYMid" fill-rule="evenodd" stroke-width="28.222" stroke-linejoin="round" xmlns="http://www.w3.org/2000/svg" xmlns:ooo="http://xml.openoffice.org/svg/export" xmlns:xlink="http://www.w3.org/1999/xlink" xmlns:presentation="http://sun.com/xmlns/staroffice/presentation" xmlns:smil="http://www.w3.org/2001/SMIL20/" xmlns:anim="urn:oasis:names:tc:opendocument:xmlns:animation:1.0" xml:space="preserve">
 <defs class="ClipPathGroup">
  <clipPath id="presentation_clip_path" clipPathUnits="userSpaceOnUse">
   <rect x="0" y="0" width="26250" height="37125"/>
  </clipPath>
  <clipPath id="presentation_clip_path_shrink" clipPathUnits="userSpaceOnUse">
   <rect x="26" y="37" width="26198" height="37051"/>
  </clipPath>
 </defs>
 <defs class="TextShapeIndex">
  <g ooo:slide="id1" ooo:id-list="id3 id4 id5 id6 id7 id8 id9 id10 id11 id12 id13 id14 id15 id16 id17 id18 id19 id20 id21 id22 id23"/>
 </defs>
 <defs class="EmbeddedBulletChars">
  <g id="bullet-char-template-57356" transform="scale(0.00048828125,-0.00048828125)">
   <path d="M 580,1141 L 1163,571 580,0 -4,571 580,1141 Z"/>
  </g>
  <g id="bullet-char-template-57354" transform="scale(0.00048828125,-0.00048828125)">
   <path d="M 8,1128 L 1137,1128 1137,0 8,0 8,1128 Z"/>
  </g>
  <g id="bullet-char-template-10146" transform="scale(0.00048828125,-0.00048828125)">
   <path d="M 174,0 L 602,739 174,1481 1456,739 174,0 Z M 1358,739 L 309,1346 659,739 1358,739 Z"/>
  </g>
  <g id="bullet-char-template-10132" transform="scale(0.00048828125,-0.00048828125)">
   <path d="M 2015,739 L 1276,0 717,0 1260,543 174,543 174,936 1260,936 717,1481 1274,1481 2015,739 Z"/>
  </g>
  <g id="bullet-char-template-10007" transform="scale(0.00048828125,-0.00048828125)">
   <path d="M 0,-2 C -7,14 -16,27 -25,37 L 356,567 C 262,823 215,952 215,954 215,979 228,992 255,992 264,992 276,990 289,987 310,991 331,999 354,1012 L 381,999 492,748 772,1049 836,1024 860,1049 C 881,1039 901,1025 922,1006 886,937 835,863 770,784 769,783 710,716 594,584 L 774,223 C 774,196 753,168 711,139 L 727,119 C 717,90 699,76 672,76 641,76 570,178 457,381 L 164,-76 C 142,-110 111,-127 72,-127 30,-127 9,-110 8,-76 1,-67 -2,-52 -2,-32 -2,-23 -1,-13 0,-2 Z"/>
  </g>
  <g id="bullet-char-template-10004" transform="scale(0.00048828125,-0.00048828125)">
   <path d="M 285,-33 C 182,-33 111,30 74,156 52,228 41,333 41,471 41,549 55,616 82,672 116,743 169,778 240,778 293,778 328,747 346,684 L 369,508 C 377,444 397,411 428,410 L 1163,1116 C 1174,1127 1196,1133 1229,1133 1271,1133 1292,1118 1292,1087 L 1292,965 C 1292,929 1282,901 1262,881 L 442,47 C 390,-6 338,-33 285,-33 Z"/>
  </g>
  <g id="bullet-char-template-9679" transform="scale(0.00048828125,-0.00048828125)">
   <path d="M 813,0 C 632,0 489,54 383,161 276,268 223,411 223,592 223,773 276,916 383,1023 489,1130 632,1184 813,1184 992,1184 1136,1130 1245,1023 1353,916 1407,772 1407,592 1407,412 1353,268 1245,161 1136,54 992,0 813,0 Z"/>
  </g>
  <g id="bullet-char-template-8226" transform="scale(0.00048828125,-0.00048828125)">
   <path d="M 346,457 C 273,457 209,483 155,535 101,586 74,649 74,723 74,796 101,859 155,911 209,963 273,989 346,989 419,989 480,963 531,910 582,859 608,796 608,723 608,648 583,586 532,535 482,483 420,457 346,457 Z"/>
  </g>
  <g id="bullet-char-template-8211" transform="scale(0.00048828125,-0.00048828125)">
   <path d="M -4,459 L 1135,459 1135,606 -4,606 -4,459 Z"/>
  </g>
  <g id="bullet-char-template-61548" transform="scale(0.00048828125,-0.00048828125)">
   <path d="M 173,740 C 173,903 231,1043 346,1159 462,1274 601,1332 765,1332 928,1332 1067,1274 1183,1159 1299,1043 1357,903 1357,740 1357,577 1299,437 1183,322 1067,206 928,148 765,148 601,148 462,206 346,322 231,437 173,577 173,740 Z"/>
  </g>
 </defs>
 <defs class="TextEmbeddedBitmaps"/>
 <g>
  <g id="id2" class="Master_Slide">
   <g id="bg-id2" class="Background"/>
   <g id="bo-id2" class="BackgroundObjects"/>
  </g>
 </g>
 <g class="SlideGroup">
  <g>
   <g id="container-id1">
    <g id="id1" class="Slide" clip-path="url(#presentation_clip_path)">
     <g class="Page">
      <g class="Group">
       <g class="com.sun.star.drawing.ClosedBezierShape">
        <g id="id3">
         <rect class="BoundingBox" stroke="none" fill="none" x="15176" y="24129" width="804" height="1471"/>
         <path fill="rgb(0,0,0)" stroke="none" d="M 15572,25599 L 15593,25544 C 15457,25544 15452,25536 15483,25453 L 15979,24130 15718,24153 15698,24208 C 15822,24208 15837,24221 15799,24323 L 15375,25453 C 15345,25534 15332,25544 15197,25544 L 15176,25599 C 15228,25595 15322,25595 15374,25595 15430,25595 15523,25595 15572,25599 Z"/>
        </g>
       </g>
       <g class="com.sun.star.drawing.ClosedBezierShape">
        <g id="id4">
         <rect class="BoundingBox" stroke="none" fill="none" x="15756" y="24663" width="944" height="954"/>
         <path fill="rgb(0,0,0)" stroke="none" d="M 16654,25410 L 16699,25292 16661,25292 16615,25412 C 16567,25542 16503,25559 16476,25559 16389,25559 16430,25448 16465,25355 L 16580,25050 C 16632,24911 16660,24837 16602,24754 16550,24684 16467,24663 16395,24663 16227,24663 16057,24794 16005,24934 15976,25012 16038,25017 16050,25017 16078,25017 16133,25000 16155,24940 16175,24887 16143,24864 16107,24864 16099,24864 16088,24866 16080,24868 16175,24735 16304,24697 16378,24697 16483,24697 16565,24790 16498,24968 L 16463,25061 C 16337,25065 16180,25082 16038,25146 15877,25220 15799,25326 15769,25406 15708,25569 15881,25616 15993,25616 16109,25616 16242,25550 16334,25429 16303,25523 16331,25607 16424,25607 16468,25607 16591,25578 16654,25410 Z M 16372,25304 C 16303,25489 16137,25582 16020,25582 15915,25582 15861,25503 15898,25406 15922,25343 15991,25230 16139,25163 16263,25105 16382,25097 16451,25093 L 16372,25304 Z"/>
        </g>
       </g>
       <g class="com.sun.star.drawing.ClosedBezierShape">
        <g id="id5">
         <rect class="BoundingBox" stroke="none" fill="none" x="16673" y="24671" width="954" height="929"/>
         <path fill="rgb(0,0,0)" stroke="none" d="M 17619,24782 C 17644,24714 17592,24672 17520,24672 17359,24672 17231,24829 17182,24903 L 17180,24903 17266,24672 17012,24695 16991,24750 C 17116,24750 17131,24763 17092,24865 L 16872,25453 C 16842,25534 16829,25544 16694,25544 L 16673,25599 C 16725,25595 16823,25595 16878,25595 16939,25595 17047,25595 17103,25599 L 17123,25544 C 16971,25544 16946,25544 16981,25449 L 17112,25100 C 17188,24896 17347,24706 17506,24706 17520,24706 17534,24708 17547,24714 17547,24714 17495,24729 17474,24784 17455,24835 17487,24856 17519,24856 17544,24856 17597,24841 17619,24782 Z"/>
        </g>
       </g>
       <g class="com.sun.star.drawing.ClosedBezierShape">
        <g id="id6">
         <rect class="BoundingBox" stroke="none" fill="none" x="17324" y="24655" width="1316" height="1377"/>
         <path fill="rgb(0,0,0)" stroke="none" d="M 18634,24738 C 18649,24697 18633,24655 18565,24655 18481,24655 18392,24695 18312,24750 18270,24693 18201,24672 18134,24672 17966,24672 17773,24803 17707,24979 17662,25100 17703,25176 17716,25197 17625,25271 17593,25358 17589,25368 17568,25423 17559,25504 17614,25548 17494,25576 17375,25661 17336,25766 17279,25919 17438,26031 17679,26031 17912,26031 18162,25923 18221,25764 18329,25476 18016,25476 17853,25476 17804,25476 17718,25476 17708,25474 17646,25464 17624,25404 17652,25330 17659,25311 17676,25265 17734,25218 17762,25250 17819,25286 17903,25286 18071,25286 18264,25155 18330,24979 18350,24924 18365,24839 18326,24774 18409,24710 18504,24689 18553,24689 18561,24689 18574,24689 18582,24695 18573,24697 18551,24706 18538,24740 18528,24767 18539,24786 18567,24786 18599,24786 18624,24765 18634,24738 Z M 18205,24979 C 18189,25021 18103,25250 17917,25250 17730,25250 17816,25021 17832,24979 17848,24937 17934,24708 18120,24708 18306,24708 18221,24937 18205,24979 Z M 18136,25766 C 18092,25883 17904,25995 17692,25995 17481,25995 17377,25883 17420,25766 17445,25701 17504,25639 17563,25606 17630,25570 17651,25570 17795,25570 17968,25570 18210,25570 18136,25766 Z"/>
        </g>
       </g>
       <g class="com.sun.star.drawing.ClosedBezierShape">
        <g id="id7">
         <rect class="BoundingBox" stroke="none" fill="none" x="18400" y="24129" width="1083" height="1471"/>
         <path fill="rgb(0,0,0)" stroke="none" d="M 19353,25599 L 19373,25544 C 19238,25544 19233,25536 19263,25453 L 19450,24956 C 19491,24848 19535,24672 19285,24672 19112,24672 18975,24812 18923,24882 L 18921,24882 19203,24130 18942,24153 18922,24208 C 19046,24208 19061,24221 19023,24323 L 18599,25453 C 18569,25534 18556,25544 18421,25544 L 18400,25599 C 18452,25595 18546,25595 18601,25595 18656,25595 18751,25595 18800,25599 L 18821,25544 C 18685,25544 18680,25536 18711,25453 L 18863,25047 C 18936,24852 19110,24706 19258,24706 19415,24706 19379,24846 19341,24947 L 19151,25453 C 19121,25534 19109,25544 18973,25544 L 18953,25599 C 19005,25595 19098,25595 19153,25595 19208,25595 19303,25595 19353,25599 Z"/>
        </g>
       </g>
       <g class="com.sun.star.drawing.ClosedBezierShape">
        <g id="id8">
         <rect class="BoundingBox" stroke="none" fill="none" x="19486" y="24234" width="765" height="1366"/>
         <path fill="rgb(0,0,0)" stroke="none" d="M 19867,25599 L 19888,25544 C 19763,25544 19763,25532 19792,25456 L 20086,24672 19833,24696 19813,24751 C 19931,24751 19944,24763 19905,24865 L 19685,25453 C 19655,25534 19642,25544 19507,25544 L 19486,25599 C 19538,25595 19629,25595 19682,25595 19733,25595 19820,25595 19867,25599 Z M 20243,24321 C 20262,24270 20235,24234 20191,24234 20140,24234 20089,24274 20071,24321 20052,24372 20079,24408 20123,24408 20174,24408 20225,24367 20243,24321 Z"/>
        </g>
       </g>
       <g class="com.sun.star.drawing.ClosedBezierShape">
        <g id="id9">
         <rect class="BoundingBox" stroke="none" fill="none" x="19994" y="24663" width="950" height="954"/>
         <path fill="rgb(0,0,0)" stroke="none" d="M 20746,25336 C 20787,25228 20751,25171 20733,25146 20694,25080 20626,25065 20543,25048 20436,25023 20299,24993 20347,24864 20368,24809 20441,24693 20655,24693 20882,24693 20815,24904 20794,24972 20792,24983 20802,24985 20808,24985 20827,24985 20830,24978 20843,24942 L 20932,24705 C 20946,24667 20945,24665 20932,24665 20924,24665 20921,24667 20884,24699 20874,24707 20847,24729 20838,24737 20797,24665 20702,24663 20666,24663 20431,24663 20301,24786 20255,24909 20183,25099 20382,25144 20439,25156 20562,25184 20605,25192 20636,25230 20654,25256 20683,25302 20654,25379 20621,25467 20527,25582 20332,25582 20148,25582 20135,25442 20167,25256 20171,25226 20172,25224 20155,25224 20138,25224 20135,25226 20120,25268 L 20005,25573 C 19991,25611 19992,25614 20005,25614 20016,25614 20018,25611 20035,25594 L 20127,25503 C 20148,25561 20201,25616 20320,25616 20529,25616 20684,25501 20746,25336 Z"/>
        </g>
       </g>
       <g class="com.sun.star.drawing.ClosedBezierShape">
        <g id="id10">
         <rect class="BoundingBox" stroke="none" fill="none" x="20756" y="24663" width="950" height="954"/>
         <path fill="rgb(0,0,0)" stroke="none" d="M 21508,25336 C 21549,25228 21513,25171 21495,25146 21456,25080 21388,25065 21305,25048 21198,25023 21061,24993 21109,24864 21130,24809 21203,24693 21417,24693 21644,24693 21577,24904 21556,24972 21554,24983 21564,24985 21570,24985 21589,24985 21592,24978 21605,24942 L 21694,24705 C 21708,24667 21707,24665 21694,24665 21686,24665 21683,24667 21646,24699 21636,24707 21609,24729 21600,24737 21559,24665 21464,24663 21428,24663 21193,24663 21063,24786 21017,24909 20945,25099 21144,25144 21201,25156 21324,25184 21367,25192 21398,25230 21416,25256 21445,25302 21416,25379 21383,25467 21289,25582 21094,25582 20910,25582 20897,25442 20929,25256 20933,25226 20934,25224 20917,25224 20900,25224 20897,25226 20882,25268 L 20767,25573 C 20753,25611 20754,25614 20767,25614 20778,25614 20780,25611 20797,25594 L 20889,25503 C 20910,25561 20963,25616 21082,25616 21291,25616 21446,25501 21508,25336 Z"/>
        </g>
       </g>
       <g class="com.sun.star.drawing.ClosedBezierShape">
        <g id="id11">
         <rect class="BoundingBox" stroke="none" fill="none" x="21539" y="24234" width="765" height="1366"/>
         <path fill="rgb(0,0,0)" stroke="none" d="M 21920,25599 L 21941,25544 C 21816,25544 21816,25532 21845,25456 L 22139,24672 21886,24696 21866,24751 C 21984,24751 21997,24763 21958,24865 L 21738,25453 C 21708,25534 21695,25544 21560,25544 L 21539,25599 C 21591,25595 21682,25595 21735,25595 21786,25595 21873,25595 21920,25599 Z M 22296,24321 C 22315,24270 22288,24234 22244,24234 22193,24234 22142,24274 22124,24321 22105,24372 22132,24408 22176,24408 22227,24408 22278,24367 22296,24321 Z"/>
        </g>
       </g>
       <g class="com.sun.star.drawing.ClosedBezierShape">
        <g id="id12">
         <rect class="BoundingBox" stroke="none" fill="none" x="22066" y="24671" width="1636" height="929"/>
         <path fill="rgb(0,0,0)" stroke="none" d="M 23571,25599 L 23592,25544 C 23456,25544 23451,25536 23482,25453 L 23669,24956 C 23708,24850 23756,24672 23504,24672 23360,24672 23224,24769 23143,24884 L 23141,24884 C 23181,24710 23070,24672 22951,24672 22784,24672 22649,24801 22585,24886 L 22583,24886 22664,24672 22405,24695 22384,24750 C 22509,24750 22524,24763 22485,24865 L 22265,25453 C 22235,25534 22222,25544 22087,25544 L 22066,25599 C 22118,25595 22212,25595 22267,25595 22322,25595 22417,25595 22466,25599 L 22487,25544 C 22351,25544 22346,25536 22377,25453 L 22529,25047 C 22602,24852 22776,24706 22924,24706 23081,24706 23045,24846 23007,24947 L 22817,25453 C 22787,25534 22775,25544 22639,25544 L 22619,25599 C 22671,25595 22764,25595 22819,25595 22874,25595 22969,25595 23019,25599 L 23039,25544 C 22904,25544 22899,25536 22929,25453 L 23082,25047 C 23155,24852 23328,24706 23476,24706 23633,24706 23598,24846 23560,24947 L 23370,25453 C 23340,25534 23327,25544 23192,25544 L 23171,25599 C 23223,25595 23317,25595 23372,25595 23427,25595 23522,25595 23571,25599 Z"/>
        </g>
       </g>
       <g class="com.sun.star.drawing.ClosedBezierShape">
        <g id="id13">
         <rect class="BoundingBox" stroke="none" fill="none" x="23822" y="24663" width="929" height="954"/>
         <path fill="rgb(0,0,0)" stroke="none" d="M 24713,25146 C 24814,24875 24697,24663 24466,24663 24235,24663 23959,24875 23857,25146 23757,25412 23878,25616 24109,25616 24340,25616 24613,25412 24713,25146 Z M 24584,25129 C 24553,25211 24501,25338 24405,25440 24310,25537 24204,25578 24123,25578 24024,25578 23961,25518 23943,25436 23926,25340 23964,25222 23999,25129 24033,25040 24078,24930 24169,24834 24237,24765 24345,24697 24453,24697 24549,24697 24609,24750 24632,24824 24661,24923 24608,25063 24584,25129 Z"/>
        </g>
       </g>
      </g>
      <g class="Group">
       <g class="com.sun.star.drawing.ClosedBezierShape">
        <g id="id14">
         <rect class="BoundingBox" stroke="none" fill="none" x="1283" y="11765" width="5054" height="14448"/>
         <path fill="rgb(0,0,0)" stroke="none" d="M 3193,25419 C 3195,26271 5060,26162 5053,24758 5056,23389 3272,15731 3252,14266 3231,13104 3860,11801 4398,11815 4824,11829 5225,12808 5223,14026 5255,17966 1851,17712 1851,20404 1851,22144 3276,22604 3989,22604 6402,22588 5997,19649 4459,19649 3552,19616 2758,20864 3957,21898 1932,20995 3017,18812 4621,18795 6758,18812 7131,22785 3989,22801 2110,22817 1317,21143 1333,19830 1333,17301 5009,15840 4961,13706 4961,12360 3584,12967 3552,15134 3584,16481 5301,23589 5285,24689 5285,26954 2418,26216 2418,25066 2434,23425 4102,24590 3584,24640 3179,25362 3193,25418 3193,25418 L 3193,25419 Z"/>
         <path fill="none" stroke="rgb(0,0,0)" stroke-width="99" stroke-linejoin="miter" d="M 3193,25419 C 3195,26271 5060,26162 5053,24758 5056,23389 3272,15731 3252,14266 3231,13104 3860,11801 4398,11815 4824,11829 5225,12808 5223,14026 5255,17966 1851,17712 1851,20404 1851,22144 3276,22604 3989,22604 6402,22588 5997,19649 4459,19649 3552,19616 2758,20864 3957,21898 1932,20995 3017,18812 4621,18795 6758,18812 7131,22785 3989,22801 2110,22817 1317,21143 1333,19830 1333,17301 5009,15840 4961,13706 4961,12360 3584,12967 3552,15134 3584,16481 5301,23589 5285,24689 5285,26954 2418,26216 2418,25066 2434,23425 4102,24590 3584,24640 3179,25362 3193,25418 3193,25418 L 3193,25419 Z"/>
        </g>
       </g>
       <g class="com.sun.star.drawing.ClosedBezierShape">
        <g id="id15">
         <rect class="BoundingBox" stroke="none" fill="none" x="2519" y="23964" width="1501" height="1483"/>
         <path fill="rgb(0,0,0)" stroke="none" d="M 3969,24705 C 3969,25086 3656,25396 3269,25396 2883,25396 2569,25086 2569,24705 2569,24324 2883,24014 3269,24014 3656,24014 3969,24324 3969,24705 Z"/>
         <path fill="none" stroke="rgb(0,0,0)" stroke-width="99" stroke-linejoin="miter" d="M 3969,24705 C 3969,25086 3656,25396 3269,25396 2883,25396 2569,25086 2569,24705 2569,24324 2883,24014 3269,24014 3656,24014 3969,24324 3969,24705 Z"/>
        </g>
       </g>
       <g class="com.sun.star.drawing.PolyPolygonShape">
        <g id="id16">
         <rect class="BoundingBox" stroke="none" fill="none" x="4728" y="22451" width="231" height="228"/>
         <path fill="rgb(0,0,0)" stroke="none" d="M 4728,22451 L 4958,22451 4958,22678 4728,22678 4728,22451 Z"/>
        </g>
       </g>
       <g class="com.sun.star.drawing.PolyPolygonShape">
        <g id="id17">
         <rect class="BoundingBox" stroke="none" fill="none" x="4059" y="18899" width="293" height="737"/>
         <path fill="rgb(0,0,0)" stroke="none" d="M 4059,18899 L 4351,18899 4351,19635 4059,19635 4059,18899 Z"/>
        </g>
       </g>
       <g class="com.sun.star.drawing.PolyPolygonShape">
        <g id="id18">
         <rect class="BoundingBox" stroke="none" fill="none" x="3543" y="16143" width="335" height="1328"/>
         <path fill="rgb(0,0,0)" stroke="none" d="M 3543,16167 L 3682,16143 3877,17445 3738,17469 3543,16167 Z"/>
        </g>
       </g>
       <g class="com.sun.star.drawing.ClosedBezierShape">
        <g id="id19">
         <rect class="BoundingBox" stroke="none" fill="none" x="2369" y="13387" width="2968" height="12827"/>
         <path fill="rgb(42,82,190)" stroke="none" d="M 3194,25420 C 3196,26272 5061,26163 5054,24759 5057,23390 3273,15732 3253,14267 3232,13105 3585,12968 3553,15135 3585,16482 5302,23590 5286,24690 5286,26955 2419,26217 2419,25067 2435,23426 4381,23812 3937,25019 3532,25741 3194,25419 3194,25419 L 3194,25420 Z"/>
         <path fill="none" stroke="rgb(42,82,190)" stroke-width="99" stroke-linejoin="miter" d="M 3194,25420 C 3196,26272 5061,26163 5054,24759 5057,23390 3273,15732 3253,14267 3232,13105 3585,12968 3553,15135 3585,16482 5302,23590 5286,24690 5286,26955 2419,26217 2419,25067 2435,23426 4381,23812 3937,25019 3532,25741 3194,25419 3194,25419 L 3194,25420 Z"/>
        </g>
       </g>
      </g>
      <g class="Group">
       <g class="com.sun.star.drawing.PolyPolygonShape">
        <g id="id20">
         <rect class="BoundingBox" stroke="none" fill="none" x="6519" y="17210" width="6813" height="5644"/>
         <path fill="rgb(0,0,0)" stroke="none" d="M 6519,22853 L 6519,22521 6622,22521 6686,22520 6748,22515 6808,22508 6866,22498 6922,22486 6975,22470 7027,22451 7076,22430 7100,22418 7122,22403 7142,22387 7161,22369 7178,22348 7194,22326 7209,22301 7222,22275 7233,22247 7243,22216 7251,22184 7258,22149 7267,22074 7270,21992 7270,18079 7267,17996 7258,17921 7251,17887 7243,17854 7233,17824 7222,17795 7209,17768 7194,17744 7178,17721 7161,17700 7142,17681 7122,17665 7100,17650 7076,17637 7027,17615 6975,17595 6922,17579 6866,17566 6808,17555 6748,17548 6686,17543 6622,17542 6519,17542 6519,17210 8321,17210 9957,21731 11577,17210 13331,17210 13331,17542 13228,17542 13162,17544 13099,17548 13038,17556 12979,17567 12923,17581 12870,17598 12818,17618 12770,17641 12747,17654 12725,17670 12705,17687 12687,17707 12670,17729 12654,17753 12640,17779 12628,17808 12616,17838 12607,17871 12599,17905 12592,17942 12583,18022 12580,18111 12580,21952 12583,22041 12592,22121 12599,22158 12607,22192 12616,22225 12628,22255 12640,22284 12654,22310 12670,22334 12687,22356 12705,22376 12725,22393 12747,22409 12770,22422 12818,22445 12870,22466 12923,22482 12979,22496 13038,22507 13099,22515 13162,22520 13228,22521 13331,22521 13331,22853 11229,22853 11229,22521 11253,22521 11314,22520 11373,22516 11428,22509 11480,22499 11529,22487 11574,22472 11616,22455 11656,22434 11674,22422 11691,22409 11707,22393 11722,22376 11736,22357 11749,22336 11761,22313 11772,22288 11782,22261 11791,22233 11805,22170 11815,22100 11822,22023 11822,17803 10012,22853 9585,22853 7752,17819 7752,21952 7754,22041 7761,22121 7773,22192 7781,22225 7790,22255 7799,22284 7811,22310 7823,22334 7836,22356 7851,22376 7867,22393 7884,22409 7902,22422 7942,22445 7985,22466 8031,22482 8082,22496 8136,22507 8194,22515 8256,22520 8321,22521 8345,22521 8345,22853 6519,22853 Z"/>
        </g>
       </g>
       <g class="com.sun.star.drawing.PolyPolygonShape">
        <g id="id21">
         <rect class="BoundingBox" stroke="none" fill="none" x="13932" y="17210" width="2301" height="5644"/>
         <path fill="rgb(0,0,0)" stroke="none" d="M 13932,22853 L 13932,22521 14035,22521 14101,22520 14164,22515 14225,22507 14284,22496 14340,22482 14394,22466 14445,22445 14493,22422 14516,22409 14538,22393 14558,22376 14576,22356 14593,22334 14609,22310 14623,22284 14636,22255 14647,22225 14656,22192 14664,22158 14671,22121 14680,22041 14683,21952 14683,18111 14680,18022 14671,17942 14664,17905 14656,17871 14647,17838 14636,17808 14623,17779 14609,17753 14593,17729 14576,17707 14558,17687 14538,17670 14516,17654 14493,17641 14445,17618 14394,17598 14340,17581 14284,17567 14225,17556 14164,17548 14101,17544 14035,17542 13932,17542 13932,17210 16232,17210 16232,17542 16129,17542 16063,17544 16000,17548 15939,17556 15880,17567 15824,17581 15770,17598 15719,17618 15671,17641 15648,17654 15626,17670 15606,17687 15588,17707 15571,17729 15555,17753 15541,17779 15528,17808 15517,17838 15508,17871 15500,17905 15493,17942 15484,18022 15481,18111 15481,21952 15484,22041 15493,22121 15500,22158 15508,22192 15517,22225 15528,22255 15541,22284 15555,22310 15571,22334 15588,22356 15606,22376 15626,22393 15648,22409 15671,22422 15719,22445 15770,22466 15824,22482 15880,22496 15939,22507 16000,22515 16063,22520 16129,22521 16232,22521 16232,22853 13932,22853 Z"/>
        </g>
       </g>
       <g class="com.sun.star.drawing.PolyPolygonShape">
        <g id="id22">
         <rect class="BoundingBox" stroke="none" fill="none" x="16831" y="17210" width="4996" height="5644"/>
         <path fill="rgb(0,0,0)" stroke="none" d="M 16831,22853 L 16831,22521 16934,22521 17000,22520 17063,22515 17124,22507 17183,22496 17239,22482 17293,22466 17344,22445 17392,22422 17415,22409 17437,22393 17457,22376 17475,22356 17492,22334 17508,22310 17522,22284 17535,22255 17546,22225 17555,22192 17563,22158 17570,22121 17579,22041 17582,21952 17582,18079 17579,17996 17570,17921 17563,17887 17555,17854 17545,17823 17534,17795 17521,17768 17506,17743 17490,17721 17473,17700 17454,17681 17434,17664 17412,17650 17388,17637 17339,17615 17287,17595 17234,17579 17178,17566 17120,17555 17060,17548 16998,17543 16934,17542 16831,17542 16831,17210 19249,17210 19545,17221 19824,17256 20086,17313 20211,17351 20332,17394 20448,17443 20561,17497 20669,17557 20772,17623 20872,17695 20967,17773 21059,17856 21146,17945 21228,18039 21305,18138 21377,18242 21443,18351 21504,18464 21560,18582 21655,18832 21730,19102 21783,19390 21815,19697 21825,20024 21821,20237 21807,20443 21785,20642 21753,20834 21713,21018 21663,21194 21605,21363 21537,21525 21460,21679 21375,21824 21281,21959 21177,22086 21065,22204 20944,22314 20814,22414 20676,22505 20528,22587 20372,22657 20206,22717 20033,22766 19850,22804 19658,22831 19458,22848 19249,22853 16831,22853 Z M 18380,22450 L 19068,22450 19295,22440 19508,22411 19609,22389 19707,22362 19800,22330 19890,22293 19977,22251 20059,22205 20138,22153 20214,22097 20285,22035 20353,21969 20417,21898 20478,21822 20535,21741 20588,21656 20638,21567 20684,21474 20765,21274 20831,21058 20882,20825 20919,20575 20941,20308 20948,20024 20941,19740 20919,19473 20882,19223 20831,18990 20765,18774 20684,18576 20638,18483 20588,18394 20535,18310 20478,18230 20417,18154 20353,18083 20285,18017 20214,17956 20139,17900 20060,17849 19978,17803 19892,17761 19803,17725 19710,17693 19613,17666 19513,17644 19301,17615 19075,17605 18380,17605 18380,22450 Z"/>
        </g>
       </g>
       <g class="com.sun.star.drawing.PolyPolygonShape">
        <g id="id23">
         <rect class="BoundingBox" stroke="none" fill="none" x="22576" y="17210" width="2301" height="5644"/>
         <path fill="rgb(0,0,0)" stroke="none" d="M 22576,22853 L 22576,22521 22679,22521 22745,22520 22808,22515 22869,22507 22928,22496 22984,22482 23038,22466 23089,22445 23137,22422 23160,22409 23182,22393 23202,22376 23220,22356 23237,22334 23253,22310 23267,22284 23280,22255 23291,22225 23300,22192 23308,22158 23315,22121 23324,22041 23327,21952 23327,18111 23324,18022 23315,17942 23308,17905 23300,17871 23291,17838 23280,17808 23267,17779 23253,17753 23237,17729 23220,17707 23202,17687 23182,17670 23160,17654 23137,17641 23089,17618 23038,17598 22984,17581 22928,17567 22869,17556 22808,17548 22745,17544 22679,17542 22576,17542 22576,17210 24876,17210 24876,17542 24773,17542 24707,17544 24644,17548 24583,17556 24524,17567 24468,17581 24414,17598 24363,17618 24315,17641 24292,17654 24270,17670 24250,17687 24232,17707 24215,17729 24199,17753 24185,17779 24172,17808 24161,17838 24152,17871 24144,17905 24137,17942 24128,18022 24125,18111 24125,21952 24128,22041 24137,22121 24144,22158 24152,22192 24161,22225 24172,22255 24185,22284 24199,22310 24215,22334 24232,22356 24250,22376 24270,22393 24292,22409 24315,22422 24363,22445 24414,22466 24468,22482 24524,22496 24583,22507 24644,22515 24707,22520 24773,22521 24876,22521 24876,22853 22576,22853 Z"/>
        </g>
       </g>
      </g>
     </g>
    </g>
   </g>
  </g>
 </g>
</svg>